<svg xmlns="http://www.w3.org/2000/svg" xmlns:xlink="http://www.w3.org/1999/xlink" width="1024" zoomAndPan="magnify" viewBox="0 0 768 767.999994" height="1024" preserveAspectRatio="xMidYMid meet" version="1.0"><defs><clipPath id="a4e13de2cb"><path d="M 102.566406 599.417969 L 257.101562 599.417969 L 257.101562 753.953125 L 102.566406 753.953125 Z M 102.566406 599.417969 " clip-rule="nonzero"/></clipPath><clipPath id="bf5374b02b"><path d="M 179.832031 599.417969 C 137.160156 599.417969 102.566406 634.011719 102.566406 676.683594 C 102.566406 719.355469 137.160156 753.953125 179.832031 753.953125 C 222.507812 753.953125 257.101562 719.355469 257.101562 676.683594 C 257.101562 634.011719 222.507812 599.417969 179.832031 599.417969 Z M 179.832031 599.417969 " clip-rule="nonzero"/></clipPath><clipPath id="c40f4ad852"><path d="M 325 12 L 551 12 L 551 272 L 325 272 Z M 325 12 " clip-rule="nonzero"/></clipPath><clipPath id="8ed76d0203"><path d="M 438.910156 -52.925781 L 661.527344 77.355469 L 547.699219 271.859375 L 325.082031 141.582031 Z M 438.910156 -52.925781 " clip-rule="nonzero"/></clipPath><clipPath id="e05ef963d1"><path d="M 550.054688 12.121094 L 547.371094 271.667969 L 325.082031 141.582031 Z M 550.054688 12.121094 " clip-rule="nonzero"/></clipPath><clipPath id="3b2990313b"><path d="M 497.476562 599.417969 L 652.011719 599.417969 L 652.011719 753.953125 L 497.476562 753.953125 Z M 497.476562 599.417969 " clip-rule="nonzero"/></clipPath><clipPath id="6c94cd4370"><path d="M 574.742188 599.417969 C 532.070312 599.417969 497.476562 634.011719 497.476562 676.683594 C 497.476562 719.355469 532.070312 753.953125 574.742188 753.953125 C 617.417969 753.953125 652.011719 719.355469 652.011719 676.683594 C 652.011719 634.011719 617.417969 599.417969 574.742188 599.417969 Z M 574.742188 599.417969 " clip-rule="nonzero"/></clipPath></defs><rect x="-76.8" width="921.6" fill="#ffffff" y="-76.799999" height="921.599993" fill-opacity="1"/><rect x="-76.8" width="921.6" fill="#ffffff" y="-76.799999" height="921.599993" fill-opacity="1"/><path stroke-linecap="round" transform="matrix(-1.664974, -1.965068, 1.965068, -1.664974, 569.029319, 739.288975)" fill="none" stroke-linejoin="miter" d="M 21.529646 20.759354 C 68.407317 55.995543 115.284184 55.972653 162.160425 20.692819 " stroke="#707c3e" stroke-width="30" stroke-opacity="1" stroke-miterlimit="4"/><path stroke-linecap="round" transform="matrix(-1.287792, 2.230521, -2.230521, -1.287792, 538.379568, 107.03924)" fill="none" stroke-linejoin="miter" d="M 14.999721 14.999896 L 259.999138 14.999706 " stroke="#707c3e" stroke-width="30" stroke-opacity="1" stroke-miterlimit="4"/><g clip-path="url(#a4e13de2cb)"><g clip-path="url(#bf5374b02b)"><path fill="#707c3e" d="M 102.566406 599.417969 L 257.101562 599.417969 L 257.101562 753.953125 L 102.566406 753.953125 Z M 102.566406 599.417969 " fill-opacity="1" fill-rule="nonzero"/></g></g><g clip-path="url(#c40f4ad852)"><g clip-path="url(#8ed76d0203)"><g clip-path="url(#e05ef963d1)"><path fill="#707c3e" d="M 438.910156 -52.925781 L 661.527344 77.355469 L 547.699219 271.859375 L 325.082031 141.582031 Z M 438.910156 -52.925781 " fill-opacity="1" fill-rule="nonzero"/></g></g></g><g clip-path="url(#3b2990313b)"><g clip-path="url(#6c94cd4370)"><path fill="#707c3e" d="M 497.476562 599.417969 L 652.011719 599.417969 L 652.011719 753.953125 L 497.476562 753.953125 Z M 497.476562 599.417969 " fill-opacity="1" fill-rule="nonzero"/></g></g></svg>